<svg width="34" height="34" viewBox="0 0 34 34" fill="none" xmlns="http://www.w3.org/2000/svg">
<path d="M24.9802 2.8177C25.177 2.46794 25.0536 2.02335 24.6958 1.84166C21.368 0.152076 17.5693 -0.398429 13.8871 0.287439C9.96623 1.01775 6.42697 3.10333 3.8884 6.17938C1.34983 9.25542 -0.0264243 13.1261 0.000384054 17.1143C0.0271924 21.1025 1.45535 24.9543 4.03505 27.9959C6.61474 31.0375 10.1817 33.0754 14.112 33.7529C18.0423 34.4304 22.0857 33.7045 25.535 31.7022C28.9842 29.6999 31.6196 26.5486 32.9802 22.7995C34.258 19.2786 34.335 15.4411 33.2113 11.8821C33.0905 11.4994 32.672 11.3051 32.2948 11.4422C31.9176 11.5792 31.7247 11.9957 31.844 12.3789C32.8521 15.6169 32.7755 19.1034 31.614 22.3037C30.3697 25.7322 27.9596 28.6141 24.8053 30.4453C21.651 32.2764 17.9532 32.9403 14.3589 32.3207C10.7646 31.7011 7.50259 29.8375 5.14344 27.0558C2.78429 24.2742 1.47823 20.7517 1.45371 17.1045C1.42919 13.4573 2.68779 9.91752 5.00933 7.10445C7.33087 4.29138 10.5676 2.3841 14.1532 1.71622C17.5002 1.0928 20.9524 1.58636 23.9824 3.10955C24.341 3.28981 24.7834 3.16747 24.9802 2.8177Z" fill="white"/>
<path d="M13.8766 12.1202C13.8777 11.8507 14.1701 11.6835 14.4028 11.8192L22.8789 16.7593C23.1117 16.895 23.1103 17.2318 22.8764 17.3655L14.3601 22.236C14.1263 22.3697 13.8353 22.2001 13.8364 21.9307L13.8766 12.1202Z" stroke="white" stroke-width="1.3"/>
</svg>
